<svg width="500" height="500" viewBox="0 0 500 500" fill="none" xmlns="http://www.w3.org/2000/svg">
<circle cx="155.5" cy="232.5" r="67.5" stroke="black" stroke-width="50"/>
<line x1="287" y1="140" x2="287" y2="325" stroke="black" stroke-width="50"/>
<mask id="path-3-outside-1_538_1170" maskUnits="userSpaceOnUse" x="311" y="224" width="114" height="101" fill="black">
<rect fill="white" x="311" y="224" width="114" height="101"/>
<path d="M396.809 310H383.186L338.996 239.98H352.619L396.809 310Z"/>
</mask>
<path d="M396.809 310H383.186L338.996 239.98H352.619L396.809 310Z" fill="black"/>
<path d="M396.809 310V325H424.013L409.494 301.994L396.809 310ZM383.186 310L370.5 318.006L374.915 325H383.186V310ZM338.996 239.98V224.98H311.792L326.311 247.986L338.996 239.98ZM352.619 239.98L365.304 231.975L360.89 224.98H352.619V239.98ZM396.809 295H383.186V325H396.809V295ZM395.871 301.994L351.681 231.975L326.311 247.986L370.5 318.006L395.871 301.994ZM338.996 254.98H352.619V224.98H338.996V254.98ZM339.934 247.986L384.124 318.006L409.494 301.994L365.304 231.975L339.934 247.986Z" fill="black" mask="url(#path-3-outside-1_538_1170)"/>
<circle cx="225.5" cy="337.5" r="22.5" fill="#4B69FF"/>
<circle cx="386" cy="165" r="25" fill="#4B69FF"/>
</svg>
